<?xml version="1.0" encoding="utf-8"?>
<!-- Generator: Adobe Illustrator 18.0.0, SVG Export Plug-In . SVG Version: 6.00 Build 0)  -->
<!DOCTYPE svg PUBLIC "-//W3C//DTD SVG 1.1//EN" "http://www.w3.org/Graphics/SVG/1.1/DTD/svg11.dtd">
<svg version="1.1" id="Layer_1" xmlns="http://www.w3.org/2000/svg" xmlns:xlink="http://www.w3.org/1999/xlink" x="0px" y="0px"
	 viewBox="0 0 300 550" enable-background="new 0 0 300 550" xml:space="preserve">
<path fill="#E76F00" d="M213.8,267.3h-1V267h2.6v0.4h-0.9v1.7h-0.7V267.3z M218.9,267.4L218.9,267.4l-1,1.7h-0.4l-0.9-1.7h0v1.7
	h-0.6V267h0.9l0.9,1.5l0.9-1.5h0.9v2.1h-0.6L218.9,267.4L218.9,267.4z"/>
<path fill="#5382A1" d="M128.3,224.4c0,0-6.6,2.5,4.7,3.4c13.8,1,20.8,0.9,36-1c0,0,4,1.6,9.6,3.1
	C144.6,239.4,101.6,229.3,128.3,224.4"/>
<path fill="#5382A1" d="M124.2,211.9c0,0-7.4,3.6,3.9,4.4c14.7,1,26.3,1.1,46.4-1.5c0,0,2.8,1.8,7.2,2.9
	C140.5,225.6,94.7,218.3,124.2,211.9"/>
<path fill="#E76F00" d="M159.2,190.7c8.4,6.3-2.2,12-2.2,12s21.3-7.2,11.5-16.2c-9.1-8.4-16.1-12.6,21.8-27
	C190.3,159.5,130.8,169.2,159.2,190.7"/>
<path fill="#5382A1" d="M204.2,233.6c0,0,4.9,2.7-5.4,4.7c-19.6,3.9-81.7,5.1-99,0.2c-6.2-1.8,5.4-4.2,9.1-4.7c3.8-0.5,6-0.4,6-0.4
	c-6.9-3.2-44.6,6.3-19.1,9C165.1,249.7,222.2,239,204.2,233.6"/>
<path fill="#5382A1" d="M131.5,199c0,0-31.6,4.9-11.2,6.7c8.6,0.8,25.8,0.6,41.8-0.3c13.1-0.7,26.2-2.3,26.2-2.3s-4.6,1.3-7.9,2.8
	c-32.1,5.5-94,3-76.2-2.7C119.2,198.4,131.5,199,131.5,199"/>
<path fill="#5382A1" d="M188.2,219.8c32.6-11.1,17.5-21.8,7-20.4c-2.6,0.4-3.7,0.7-3.7,0.7s1-1,2.8-1.4c20.8-4.8,36.8,14.2-6.7,21.7
	C187.5,220.3,188,220,188.2,219.8"/>
<path fill="#E76F00" d="M168.5,136.2c0,0,18.1,11.9-17.1,30.1c-28.2,14.6-6.4,23,0,32.5c-16.5-9.8-28.6-18.3-20.4-26.3
	C142.8,160.7,175.8,155,168.5,136.2"/>
<path fill="#5382A1" d="M134.7,249.9c31.3,1.3,79.3-0.7,80.5-10.4c0,0-2.2,3.7-25.9,6.6c-26.7,3.3-59.6,2.9-79.2,0.8
	C110.1,246.8,114.1,249,134.7,249.9"/>
<path fill="#E76F00" d="M129.6,287c-3,1.7-6.1,2.6-8.9,2.6c-4,0-6.2-1.6-6.2-4.1c0-2.7,2.3-4.7,11.6-4.7h3.4L129.6,287 M137.7,293
	v-18.7c0-4.8-4.1-7.9-14.1-7.9c-5.8,0-10.9,0.9-15.1,2.2l1.2,3.3c3.3-0.8,7.5-1.5,11.7-1.5c5.8,0,8.2,1.5,8.2,4.7v2.4h-2.9
	c-14,0-20.3,3.6-20.3,8.9c0,4.6,4.2,7.2,12,7.2c5,0,8.8-1.4,12.3-3.4l0.6,2.8L137.7,293L137.7,293z"/>
<path fill="#E76F00" d="M164.9,293h-10.2l-12.2-26.1h8.9l7.6,16l1.7,4.8c3.8-7,6.6-14.1,7.9-20.9h8.6
	C174.9,275.5,170.7,285,164.9,293"/>
<path fill="#E76F00" d="M203.9,287c-3,1.7-6.1,2.6-8.9,2.6c-4,0-6.1-1.6-6.1-4.1c0-2.7,2.3-4.7,11.6-4.7h3.4V287 M212,293v-18.7
	c0-4.8-4.2-7.9-14.1-7.9c-5.8,0-11,0.9-15.1,2.2l1.2,3.3c3.3-0.8,7.5-1.5,11.7-1.5c5.8,0,8.2,1.5,8.2,4.7v2.4H201
	c-14,0-20.3,3.6-20.3,8.9c0,4.6,4.2,7.2,12,7.2c5,0,8.8-1.4,12.3-3.4l0.6,2.8L212,293L212,293z"/>
<path fill="#E76F00" d="M97.5,297.5c-2.3,2.2-6.1,4-10.2,5l-4-3.1c3.1-1.1,5.8-2.8,7.1-4.3c1.1-1.4,1.5-3.2,1.5-7.6v-29.8h8.7v29.4
	C100.5,292.9,99.8,295.2,97.5,297.5"/>
</svg>
